PathFileType	4	(X/Y/Z)	/Users/visionmauri/4_3_2_f_1_Sports2D/4_3_2_f_1_Sports2D_px_person00.trc
DataRate	CameraRate	NumFrames	NumMarkers	Units	OrigDataRate	OrigDataStartFrame	OrigNumFrames
30.0	30.0	8	22	m	30.0	135	360
Frame#	Time	Hip			RHip			RKnee			RAnkle			RBigToe			RSmallToe			RHeel			LHip			LKnee			LAnkle			LBigToe			LSmallToe			LHeel			Neck			Head			Nose			RShoulder			RElbow			RWrist			LShoulder			LElbow			LWrist			
		X1	Y1	Z1	X2	Y2	Z2	X3	Y3	Z3	X4	Y4	Z4	X5	Y5	Z5	X6	Y6	Z6	X7	Y7	Z7	X8	Y8	Z8	X9	Y9	Z9	X10	Y10	Z10	X11	Y11	Z11	X12	Y12	Z12	X13	Y13	Z13	X14	Y14	Z14	X15	Y15	Z15	X16	Y16	Z16	X17	Y17	Z17	X18	Y18	Z18	X19	Y19	Z19	X20	Y20	Z20	X21	Y21	Z21	X22	Y22	Z22
135	4.512534818941504	535.6668574590424	824.7699888658171	0.0	499.1456485275451	824.7236649007042	0.0	550.1049242871854	996.5730767793796	0.0	521.6917868079066	1207.5490438226213	0.0	594.7222391530041	1259.3959941896912	0.0	571.1072272272421	1263.0900714115087	0.0	505.11530082048057	1242.9916466513953	0.0	573.4803760178823	827.6119503697822	0.0	575.9556434750649	999.6157027197513	0.0	534.4493785271163	1186.0896213216581	0.0	594.9951050683069	1237.9942062614907	0.0	594.1069809504118	1226.1249689182316	0.0	513.971807859784	1218.3938603743047	0.0	569.2761424863872	571.6624215896237	0.0	611.2809239910802	449.8140859072448	0.0	629.684954902445	531.3075152965737	0.0	504.59992167331313	590.5705533544017	0.0	484.2895388524055	725.9111626050528	0.0	586.5786216508977	810.5507564710149	0.0	621.3765684864213	598.1561724229734	0.0	651.4122602490359	708.671412203568	0.0	701.8186554845769	804.9137543370296	0.0
136	4.545961002785516	536.4834488538721	825.5958311064288	0.0	498.79735593292895	825.5092332894421	0.0	539.6274550440246	1000.2417827220652	0.0	514.4093194898342	1211.9239287296505	0.0	586.123968603883	1261.7747975092313	0.0	562.6502456191579	1267.9211901131073	0.0	496.3012638543931	1246.7139545320597	0.0	573.9599023240818	828.1992362258895	0.0	575.5136281143639	1001.3280943400017	0.0	535.3575940343246	1185.8802394607367	0.0	593.7015504172728	1232.2015957547699	0.0	593.0032574248638	1222.4005703525447	0.0	515.6943104991465	1216.4855066400544	0.0	568.3606169187071	571.859421571615	0.0	611.0687775515905	451.3198106613419	0.0	628.5413840467093	529.9313176246513	0.0	502.93350616423794	592.5613267522211	0.0	473.28741634735854	725.4796750347673	0.0	563.7044550797012	811.0373869382889	0.0	620.1474425224345	598.9855552779816	0.0	651.4356719736166	709.5581149626681	0.0	701.1384833382251	804.6967983712875	0.0
137	4.579387186629527	537.2047355570552	827.1551874964521	0.0	499.0377513108704	827.3182763274535	0.0	527.3500969944819	1006.1166101543777	0.0	506.9067660272901	1214.6218814602698	0.0	580.1201293641109	1262.37880494297	0.0	555.3390521663299	1269.968198290079	0.0	487.36586537699077	1247.0042043397696	0.0	574.167077819069	829.9045933341629	0.0	574.9162651299484	1004.464450636561	0.0	537.1949757944199	1186.2804697704294	0.0	595.4391213777843	1228.010381699249	0.0	594.2851559802345	1218.0080349284017	0.0	517.950018857186	1214.5128730704969	0.0	567.3197876788213	571.972797003814	0.0	608.2937680259873	452.7461290965136	0.0	628.1294098693013	528.5022336771133	0.0	502.10406576968853	593.8965201111405	0.0	462.67326794833934	724.743654948513	0.0	541.6385284230423	811.8551873004512	0.0	618.28271935393	599.488503715952	0.0	650.3099156318217	710.4967706644085	0.0	700.0724647617664	804.4115905969809	0.0
138	4.612813370473538	538.6929201944856	829.0957081052541	0.0	500.87417343419753	829.85662074155	0.0	519.6225921260859	1010.2826944782789	0.0	501.03516639208163	1217.4098108917674	0.0	575.3332148757136	1264.0990115986378	0.0	549.0190729125628	1272.2056828002542	0.0	480.21213453385076	1247.3529371687575	0.0	575.1564782986579	832.0538484617625	0.0	575.3303185888292	1007.0680622748284	0.0	538.3408667570259	1186.7022363228511	0.0	597.5996079505454	1226.9871866400495	0.0	596.1152747021044	1214.5128539643274	0.0	519.4168089552948	1213.471532560899	0.0	565.7207516482097	572.1179686617226	0.0	604.3893614090323	453.2633942040613	0.0	627.3700441105605	527.6979746406817	0.0	500.97142095400795	594.6954943347839	0.0	451.8168902584372	723.6117988015279	0.0	518.5713195878201	813.6030186386838	0.0	616.9227568536886	599.4886169269809	0.0	648.3195068756796	710.8263979546051	0.0	699.0534037571783	803.617060010664	0.0
139	4.646239554317549	540.5299023521851	830.7314241787506	0.0	503.6187470503696	831.8636701527801	0.0	517.3119404343001	1010.1706828939983	0.0	498.1526493677484	1220.4235233196146	0.0	570.6232708879733	1267.3438068275843	0.0	544.0848497196405	1275.7286286584335	0.0	476.81702587390583	1249.701040043553	0.0	576.2110875609102	833.3281749003764	0.0	577.3505941633342	1007.9026040219192	0.0	538.4729564895565	1186.8724455514682	0.0	597.43637560047	1227.8796898287517	0.0	597.0804172185759	1212.6615307031575	0.0	519.4440957120042	1213.4610816630393	0.0	563.6276312988289	572.2292027231506	0.0	601.039957813241	453.1133373241767	0.0	624.6420188223627	527.7326179387522	0.0	498.2646448380241	595.2827688543927	0.0	440.9699827233397	722.5574804528936	0.0	494.1239151538498	815.4982312005601	0.0	616.5836556669368	599.396003237105	0.0	646.882878486356	710.6800917961331	0.0	698.3747794230002	803.0029989957392	0.0
140	4.67966573816156	541.4691382424973	831.5602306678086	0.0	505.21362312766865	832.1755261145131	0.0	516.9887590109188	1007.5465953801416	0.0	497.4829990498028	1222.4848808682007	0.0	567.0231660054048	1270.501896301381	0.0	541.2213443353168	1278.6553026334557	0.0	476.0785548402964	1252.1783414941922	0.0	576.6361037600778	833.4607686188479	0.0	580.1599272684981	1007.3329154949174	0.0	538.3579331676228	1186.658605488873	0.0	595.2922093491042	1229.111489562217	0.0	597.07104831514	1212.9369024327118	0.0	518.8796836961968	1213.4316873605694	0.0	561.6941648744337	572.090322047949	0.0	598.1475791658378	452.98573928605776	0.0	621.047282197604	528.5680706415923	0.0	494.13987367645313	595.449542036854	0.0	431.2923213504151	720.2985074107152	0.0	467.98944043117086	813.9018846394291	0.0	616.7624204518565	599.4337660725582	0.0	646.3686763396718	710.6202725852208	0.0	698.1313499423493	803.2831086137127	0.0
141	4.713091922005571	541.157991432073	831.2753981568475	0.0	504.64793228261897	830.6810402501446	0.0	516.0523931546987	1004.0821430439875	0.0	496.91887098434603	1223.244470413959	0.0	564.9418836996331	1273.0737965306955	0.0	539.6228531561251	1280.2605245898928	0.0	475.1831635486798	1253.2468248638597	0.0	577.0690267918023	833.0280310382125	0.0	582.7848658543464	1005.810821571499	0.0	538.4436889668082	1185.468338773945	0.0	593.6060156454878	1230.0085760184281	0.0	596.6790843594507	1214.6651390732168	0.0	518.7897888385261	1212.336469279353	0.0	560.2959480973478	571.7175515677574	0.0	594.9973811557599	453.1926732047622	0.0	618.5091726698448	529.9824693938568	0.0	489.8757097675529	594.9176949741495	0.0	424.3773781358882	715.4778297746298	0.0	440.58400513322596	807.0429624320916	0.0	616.6619333538154	599.44125205028	0.0	646.0071955398554	711.1132542730795	0.0	698.2654320569123	803.756212097685	0.0
142	4.7465181058495824	540.2764088407274	830.1821994874722	0.0	502.4645952284995	828.5655179063185	0.0	514.0624884522066	997.6963006203393	0.0	495.45619372084207	1222.4320403875547	0.0	563.1291506255334	1274.6554875104393	0.0	538.1490708879869	1280.5013129532863	0.0	473.65045727538205	1253.486921762803	0.0	578.1319828597137	832.2906599689716	0.0	585.0421225155424	1004.2138682725233	0.0	538.4496516675772	1183.7924908181997	0.0	593.438476730635	1230.129115527631	0.0	596.4043894999172	1215.5662320216866	0.0	519.0991762678917	1210.1651058922241	0.0	559.0780099485943	571.4886098029293	0.0	591.8859346655714	453.4396882305664	0.0	616.3505475771548	531.065396098688	0.0	486.4823300854812	594.2155471520439	0.0	420.3350394156585	710.0751707198147	0.0	415.67404794297335	799.7436893324153	0.0	615.8625849188338	599.2004160172787	0.0	645.6051908404139	711.9477256819831	0.0	698.2596099267628	803.9756194800676	0.0
